<svg t="1596977687678" class="icon" viewBox="0 0 1024 1024" version="1.1" xmlns="http://www.w3.org/2000/svg" p-id="1987" width="24" height="24"><path d="M713.5232 934.912H311.5008v13.5168c0 14.5408-5.3248 28.0576-15.7696 38.2976-10.24 10.24-23.7568 15.7696-38.2976 15.7696s-28.0576-5.9392-38.2976-15.7696c-10.24-9.6256-15.5648-23.7568-15.5648-38.2976v-13.5168h-26.624c-97.28 0-176.128-72.4992-176.128-161.9968V346.112c0-89.088 78.848-161.9968 176.128-161.9968h193.3312l-103.8336-92.3648c-18.8416-16.7936-20.0704-34.6112-3.2768-53.4528 16.7936-18.8416 34.6112-20.0704 53.4528-3.2768l166.912 149.0944h56.1152L706.9696 34.816c18.8416-16.7936 36.6592-15.7696 53.4528 3.2768 16.7936 18.8416 15.7696 36.6592-3.2768 53.4528L653.312 184.5248h194.56c49.7664 0 97.28 19.456 130.2528 53.0432 29.0816 28.672 45.4656 67.9936 44.8512 109.1584v426.8032c0 89.088-78.848 161.9968-176.128 161.9968h-26.4192v13.5168c0 14.5408-5.3248 28.0576-15.7696 38.2976-10.24 10.24-23.7568 15.7696-38.2976 15.7696s-28.0576-5.3248-38.2976-15.7696c-10.24-10.24-15.7696-23.7568-15.7696-38.2976v-14.1312h1.2288zM569.344 747.52c8.192 0 16.1792-2.6624 22.7328-7.5776l48.5376-36.2496c7.5776-4.3008 11.264-12.4928 10.8544-21.0944-0.6144-8.6016-5.9392-15.5648-14.1312-18.8416-8.192-3.2768-16.7936-1.6384-23.1424 4.3008L570.9824 700.416l-31.3344-38.2976c-6.9632-8.6016-17.8176-14.1312-29.0816-14.1312s-22.1184 4.9152-29.0816 13.5168l-31.9488 37.888-37.2736-30.72c-5.9392-5.3248-14.5408-6.9632-22.1184-4.3008-7.5776 2.6624-12.9024 9.216-14.1312 17.2032-1.024 8.192 2.2528 16.1792 8.192 21.0944l42.1888 35.0208c16.1792 12.9024 39.5264 10.8544 53.0432-4.9152l30.72-36.6592 30.3104 37.2736c6.5536 8.6016 17.408 14.1312 28.8768 14.1312z m-188.6208-249.0368c18.432-4.3008 30.72-22.7328 26.4192-40.96-1.6384-9.216-6.9632-17.2032-15.1552-22.1184-7.5776-4.9152-17.2032-6.5536-26.4192-4.9152l-170.1888 38.912c-18.8416 3.6864-30.72 22.7328-26.4192 40.96 3.6864 18.8416 22.7328 30.72 40.96 26.4192l170.8032-38.2976z m263.5776 0l170.1888 38.912c11.8784 2.6624 24.7808-1.6384 32.9728-10.8544 8.192-9.216 10.8544-22.1184 6.9632-33.9968-3.6864-11.8784-13.5168-20.48-26.0096-23.1424l-170.1888-38.912c-9.216-2.2528-18.432-0.6144-26.4192 4.9152-7.5776 4.9152-12.9024 12.9024-15.1552 22.1184-3.072 17.6128 9.4208 36.4544 27.648 40.96z m0 0" p-id="1988" fill="#595959"></path></svg>